<svg width="223" height="243" viewBox="0 0 223 243" fill="none" xmlns="http://www.w3.org/2000/svg">
<rect y="22.8845" width="222.987" height="204.029" rx="102.014" fill="black" fill-opacity="0.01"/>
<ellipse cx="111.494" cy="132.544" rx="111.494" ry="109.66" fill="#252525" fill-opacity="0.75"/>
<circle cx="111.645" cy="132.658" r="27.6576" fill="#B4B4B8"/>
<circle cx="197.487" cy="23.8279" r="15.5" fill="#6A6A71"/>
<path d="M205.987 10.8279L178.487 57.8279C173.987 64.8279 163.987 71.8279 148.987 71.8279" stroke="white" stroke-width="5"/>
<rect x="202.447" width="19" height="9.62671" rx="2" transform="rotate(27.5981 202.447 0)" fill="#47474F"/>
<circle cx="197.487" cy="23.8279" r="8.5" fill="#47474F"/>
<path d="M147.662 66.9578L134.845 68.0455C133.769 68.1368 132.96 69.0655 133.017 70.1437L133.308 75.671C133.364 76.7215 134.223 77.5495 135.275 77.5654L148.509 77.7664C149.707 77.7846 150.652 76.752 150.529 75.5599L149.82 68.744C149.708 67.6599 148.748 66.8657 147.662 66.9578Z" fill="#6A6A71" stroke="white"/>
<circle cx="144.793" cy="72.3799" r="2.25" transform="rotate(12.5036 144.793 72.3799)" stroke="white" stroke-width="0.5"/>
<circle cx="135.79" cy="71.4077" r="0.5" transform="rotate(12.5036 135.79 71.4077)" fill="white"/>
<circle cx="136.117" cy="74.5531" r="0.5" transform="rotate(12.5036 136.117 74.5531)" fill="white"/>
<path d="M140.686 82.2365C141.949 82.3054 142.192 79.7851 142.156 78.5163L144.848 78.5049C145.533 82.2159 142.734 83.4039 141.248 83.534C140.535 83.0728 139.423 82.1676 140.686 82.2365Z" fill="white" stroke="white"/>
</svg>
